<svg id="visual" viewBox="0 0 900 600" width="900" height="600" xmlns="http://www.w3.org/2000/svg" xmlns:xlink="http://www.w3.org/1999/xlink" version="1.1"><path d="M0 91L82 49L164 43L245 37L327 61L409 97L491 67L573 67L655 73L736 97L818 97L900 55L900 0L818 0L736 0L655 0L573 0L491 0L409 0L327 0L245 0L164 0L82 0L0 0Z" fill="#00cc8e"></path><path d="M0 151L82 121L164 97L245 103L327 109L409 157L491 175L573 163L655 115L736 199L818 151L900 181L900 53L818 95L736 95L655 71L573 65L491 65L409 95L327 59L245 35L164 41L82 47L0 89Z" fill="#00b98a"></path><path d="M0 313L82 313L164 277L245 271L327 283L409 241L491 253L573 301L655 271L736 343L818 223L900 379L900 179L818 149L736 197L655 113L573 161L491 173L409 155L327 107L245 101L164 95L82 119L0 149Z" fill="#00a784"></path><path d="M0 445L82 541L164 439L245 433L327 529L409 481L491 463L573 529L655 481L736 529L818 451L900 511L900 377L818 221L736 341L655 269L573 299L491 251L409 239L327 281L245 269L164 275L82 311L0 311Z" fill="#00957c"></path><path d="M0 601L82 601L164 601L245 601L327 601L409 601L491 601L573 601L655 601L736 601L818 601L900 601L900 509L818 449L736 527L655 479L573 527L491 461L409 479L327 527L245 431L164 437L82 539L0 443Z" fill="#038373"></path></svg>